
        <svg xmlns="http://www.w3.org/2000/svg" xmlns:xlink="http://www.w3.org/1999/xlink" version="1.1" width="3171.4285714285716" height="2358.67483984837" viewBox="0 0 3171.4285714285716 2358.67483984837">
			
			<g transform="scale(8.571428571428571) translate(10, 10)">
				<defs id="SvgjsDefs1292"/><g id="SvgjsG1293" featureKey="pxMwYC-0" transform="matrix(1.5147345838156345,0,0,1.5147345838156345,99.63563587663498,-10.445608106751054)" fill="#fff"><path xmlns="http://www.w3.org/2000/svg" d="M19.092,27.65l4.498,9.108l2.48-0.37l-4.613-9.347c0.333-0.381,0.542-0.874,0.542-1.42c0-0.233-0.046-0.452-0.114-0.662  l10.16-10.159l0.5,0.5l2.546,8.813l9.511-9.509l-8.817-2.545l-5.163-5.163l-3.241,3.241l2.973,2.973l-10.36,10.359  c-0.054-0.004-0.106-0.016-0.162-0.016c-1.197,0-2.167,0.969-2.167,2.167C17.666,26.558,18.262,27.347,19.092,27.65z M93.691,44.674  c0-5.402-19.735-9.779-44.083-9.779c-8.684,0-16.746,0.025-23.571,0.985L27.37,38c0.008,0,0.016,0,0.024,0l-2.612,0.623l1.773,3.864  c0.203,0.412,0.613,0.807,1.072,0.807c0.188,0,0.364,0.025,0.532-0.056c0.591-0.294,0.833-0.977,0.54-1.566l-1.291-2.599  c5.357,0.015,9.685,1.301,9.685,2.873c0,1.585-4.383,2.874-9.789,2.874c-5.406,0-9.788-1.283-9.788-2.868  c0-1.318,3.06-2.418,7.201-2.75l-1.199-2.399C12.621,38.584,5.522,41.44,5.522,44.674c0,3.764,9.614,7.029,23.683,8.66  L16.129,77.336c-0.608,1.121-0.197,2.518,0.917,3.123c0.352,0.193,0.728,0.279,1.1,0.279c0.815,0,1.604-0.43,2.02-1.199  L34.231,53.82C38.229,54.152,43,54.357,47,54.42v36.383c0,1.271,1.228,2.299,2.5,2.299c1.271,0,2.5-1.027,2.5-2.299V54.428  c4-0.039,7.904-0.199,11.686-0.477l13.812,25.588c0.415,0.77,1.139,1.199,1.955,1.199c0.375,0,0.718-0.086,1.067-0.279  c1.117-0.605,1.511-2.002,0.905-3.123L68.43,53.504C83.355,51.939,93.691,48.579,93.691,44.674z"/></g><g id="SvgjsG1294" featureKey="Vx5QiU-0" transform="matrix(4.132230809418292,0,0,4.132230809418292,-6.446276870642598,131.90909413338377)" fill="#fff"><path d="M16.88 20 l-3.18 0 l0 -6.98 l-4.48 5.2 l-4.48 -5.2 l0 6.98 l-3.18 0 l0 -15.08 l7.66 8.64 l7.66 -8.64 l0 15.08 z M22.509999999999998 19.49 q-1.37 -0.77 -2.17 -2.09 t-0.8 -2.88 q0 -1.54 0.8 -2.86 t2.17 -2.09 t2.99 -0.77 t3 0.77 t2.19 2.09 t0.81 2.86 q0 1.56 -0.81 2.88 t-2.19 2.09 t-3 0.77 t-2.99 -0.77 z M23.98 11.83 q-0.7 0.41 -1.1 1.12 t-0.4 1.57 q0 0.9 0.39 1.61 t1.08 1.12 t1.55 0.41 q0.84 0 1.53 -0.41 t1.09 -1.13 t0.4 -1.6 q0 -0.86 -0.4 -1.57 t-1.09 -1.12 t-1.53 -0.41 q-0.82 0 -1.52 0.41 z M42.28 18.9 q-0.38 0.52 -1.31 0.93 t-2.03 0.41 q-1.7 0 -2.95 -0.76 t-1.91 -2.07 t-0.66 -2.91 t0.66 -2.91 t1.91 -2.07 t2.95 -0.76 q1.14 0 2.01 0.39 t1.33 0.99 l0 -5.26 l2.96 0 l0 15.12 l-2.96 0 l0 -1.1 z M41.58 12.25 q-0.82 -0.87 -2.2 -0.87 q-1.4 0 -2.21 0.87 t-0.81 2.25 q0 1.34 0.83 2.22 t2.19 0.88 q1.4 0 2.21 -0.83 t0.81 -2.27 q0 -1.38 -0.82 -2.25 z M51 7.369999999999999 q-0.48 0.47 -1.16 0.47 q-0.7 0 -1.19 -0.47 t-0.49 -1.15 q0 -0.66 0.49 -1.13 t1.19 -0.47 q0.68 0 1.16 0.47 t0.48 1.13 q0 0.68 -0.48 1.15 z M48.34 9.02 l3 0 l0 10.98 l-3 0 l0 -10.98 z M57.32 4.880000000000001 l0 8.8 l3.74 -4.62 l3.66 0 l-4.42 5.12 l4.6 5.82 l-3.62 0 l-2.88 -3.6 l-1.08 1.24 l0 2.36 l-3 0 l0 -15.12 l3 0 z M71.92 11.87 q-0.86 0.21 -1.58 0.99 t-0.72 2.28 l0 4.86 l-2.98 0 l0 -11 l2.98 0 l0 1.46 q0.74 -0.98 1.81 -1.33 t1.95 -0.33 l0 2.92 q-0.6 -0.06 -1.46 0.15 z M83.3 18.9 q-0.38 0.52 -1.31 0.93 t-2.03 0.41 q-1.7 0 -2.95 -0.76 t-1.91 -2.07 t-0.66 -2.91 t0.66 -2.91 t1.91 -2.07 t2.95 -0.76 q1.14 0 2.01 0.39 t1.33 0.99 l0 -1.14 l2.96 0 l0 11 l-2.96 0 l0 -1.1 z M82.6 12.25 q-0.82 -0.87 -2.2 -0.87 q-1.4 0 -2.21 0.87 t-0.81 2.25 q0 1.34 0.83 2.22 t2.19 0.88 q1.4 0 2.21 -0.83 t0.81 -2.27 q0 -1.38 -0.82 -2.25 z"/></g><g id="SvgjsG1295" featureKey="aAUSXE-0" transform="matrix(1.755639782844092,0,0,1.755639782844092,25.190977352034594,219.5392412961607)" fill="#fff"><path d="M17.56 20 l-3.04 0 l0 -10.68 l-5.04 8.5 l-4.84 -8.58 l0 10.76 l-3.04 0 l0 -16 l3.5 0 l4.44 7.94 l4.64 -7.94 l3.38 0 l0 16 z M46.16 4 l0 8.68 q0 1.6 -0.48 2.98 t-1.39 2.41 t-2.22 1.62 t-2.99 0.59 q-1.64 0 -2.96 -0.58 t-2.25 -1.59 t-1.43 -2.38 t-0.5 -2.95 l0 -8.78 l3.1 0 l0 8.8 q0 0.92 0.26 1.73 t0.76 1.41 t1.25 0.95 t1.71 0.35 q1.02 0 1.77 -0.33 t1.24 -0.92 t0.74 -1.39 t0.25 -1.76 l0 -8.84 l3.14 0 z M70.9 20 l-10.56 0 l0 -15.98 l10.56 0 l0 2.56 l-7.52 0 l0 3.82 l7.42 0 l0 2.5 l-7.42 0 l0 4.4 l7.52 0 l0 2.7 z M96.28 15.42 q0 1 -0.41 1.85 t-1.09 1.46 t-1.57 0.95 t-1.87 0.34 l-6.46 -0.02 l0 -16 l5.76 0 q1.04 0 1.93 0.31 t1.55 0.9 t1.03 1.44 t0.37 1.91 q0 0.9 -0.4 1.74 t-1.06 1.42 q0.52 0.26 0.93 0.66 t0.7 0.89 t0.44 1.04 t0.15 1.11 z M92.46000000000001 8.62 q0 -0.58 -0.22 -1 t-0.59 -0.7 t-0.85 -0.42 t-1 -0.14 l-1.82 0 l0 4.4 q0.5 0.02 0.9 0.02 l0.92 0 t1 -0.12 t0.85 -0.38 t0.59 -0.67 t0.22 -0.99 z M93.06 15.24 q0 -0.5 -0.19 -0.92 t-0.52 -0.71 t-0.76 -0.45 t-0.93 -0.16 q-0.68 -0.02 -1.34 -0.01 t-1.34 0.01 l0 4.42 l2.32 0 q0.5 0 1 -0.12 t0.89 -0.39 t0.63 -0.68 t0.24 -0.99 z M120.88000000000001 20 l-10.82 0 l0 -15.98 l3.16 0 l0 12.98 l7.66 0 l0 3 z M144.82000000000002 20 l-10.56 0 l0 -15.98 l10.56 0 l0 2.56 l-7.52 0 l0 3.82 l7.42 0 l0 2.5 l-7.42 0 l0 4.4 l7.52 0 l0 2.7 z M169.48000000000002 15.8 q0 0.9 -0.39 1.71 t-1.09 1.43 t-1.66 0.99 t-2.12 0.37 q-1.04 0 -1.87 -0.12 t-1.56 -0.38 t-1.4 -0.67 t-1.39 -0.99 l2.2 -2.22 q0.96 0.8 1.88 1.13 t2 0.33 q0.44 0 0.83 -0.13 t0.68 -0.35 t0.46 -0.52 t0.17 -0.66 q0 -0.38 -0.14 -0.68 t-0.5 -0.58 t-1 -0.57 t-1.64 -0.65 q-0.88 -0.32 -1.69 -0.73 t-1.42 -0.99 t-0.98 -1.36 t-0.37 -1.84 q0 -1.02 0.41 -1.88 t1.12 -1.47 t1.66 -0.95 t2.05 -0.34 q1.84 0 3.1 0.48 t2.24 1.4 l-2.16 2.18 q-0.6 -0.58 -1.34 -0.89 t-1.74 -0.31 q-0.46 0 -0.85 0.14 t-0.67 0.37 t-0.45 0.54 t-0.17 0.65 q0 0.38 0.16 0.69 t0.54 0.6 t1.01 0.58 t1.57 0.63 q1.2 0.42 2.06 0.92 t1.4 1.1 t0.8 1.35 t0.26 1.69 z"/></g>
			</g>
		</svg>
	